<svg width="40" height="40" viewBox="0 0 40 40" fill="none" xmlns="http://www.w3.org/2000/svg">
<path d="M0 39.9884V4.40599C0 3.31875 0.392 2.38834 1.176 1.61475C1.96 0.841163 2.90133 0.45371 4 0.452393H36C37.1 0.452393 38.042 0.839845 38.826 1.61475C39.61 2.38965 40.0013 3.32007 40 4.40599V28.1276C40 29.2148 39.6087 30.1459 38.826 30.9208C38.0433 31.6957 37.1013 32.0825 36 32.0812H8L0 39.9884ZM8 24.174H24V20.2204H8V24.174ZM8 18.2436H32V14.29H8V18.2436ZM8 12.3132H32V8.35958H8V12.3132Z" fill="#107966"/>
</svg>
