<svg width="49" height="51" viewBox="0 0 49 51" fill="none" xmlns="http://www.w3.org/2000/svg">
<g filter="url(#filter0_d_1248_517)">
<mask id="mask0_1248_517" style="mask-type:luminance" maskUnits="userSpaceOnUse" x="29" y="16" width="16" height="16">
<path d="M29 16H45V32H29V16Z" fill="white"/>
<path fill-rule="evenodd" clip-rule="evenodd" d="M32.7831 22.6732C33.124 23.9975 33.8416 25.3501 34.66 26.168C35.7985 27.3071 36.8656 27.7169 37.7197 27.7495C38.5671 27.7815 39.3302 27.448 39.9019 26.8745C40.1277 26.6486 40.2933 26.2978 40.3653 25.8191C40.4366 25.3452 40.4096 24.7889 40.2945 24.2C39.8643 21.9963 37.8053 20.224 35.2379 19.5988C34.0619 19.3126 33.3517 19.4111 33.0028 19.7618C32.7936 19.9711 32.6354 20.3348 32.5899 20.8683C32.545 21.3914 32.6145 22.0154 32.7831 22.6732ZM31.2717 20.8129C31.3277 20.1606 31.532 19.5145 32.0077 19.0375C32.9345 18.1083 34.4188 18.2141 35.6274 18.5083C38.604 19.2326 41.0742 21.304 41.5979 23.9865C41.7271 24.6511 41.7683 25.3237 41.676 25.9372C41.5837 26.5465 41.3542 27.1403 40.8976 27.5988C40.4717 28.0279 39.9611 28.3636 39.3982 28.5844C38.8354 28.8052 38.2327 28.9063 37.6286 28.8812C36.3086 28.8308 34.937 28.2068 33.6471 26.9175C32.6582 25.928 31.8662 24.3951 31.4933 22.9434C31.3043 22.2129 31.2151 21.4757 31.2717 20.8129Z" fill="black"/>
<path fill-rule="evenodd" clip-rule="evenodd" d="M37.7358 21.8216C38.0958 21.8745 38.3376 22.1662 38.2761 22.4739L37.9856 23.9157L39.3906 25.5243L40.3352 26.7846L41.5746 28.6431C41.7555 28.9145 41.6447 29.2597 41.3272 29.4142C41.0096 29.5686 40.6053 29.4739 40.425 29.2031L39.2023 27.3693L38.4496 26.3662L36.1346 26.0603C35.7733 26.0123 35.5253 25.7237 35.582 25.4154C35.6373 25.1065 35.9758 24.8954 36.337 24.9428L37.3481 25.0763L36.7832 24.4302L34.3875 22.376C34.129 22.1551 34.1303 21.7976 34.3893 21.5766C34.522 21.47 34.6872 21.412 34.8574 21.4124C35.0276 21.4127 35.1925 21.4713 35.3247 21.5785L36.8503 22.8856L36.9715 22.2825C37.033 21.9748 37.3758 21.7686 37.7358 21.8209" fill="black"/>
</mask>
<g mask="url(#mask0_1248_517)">
<path d="M37 32C41.4183 32 45 28.4183 45 24C45 19.5817 41.4183 16 37 16C32.5817 16 29 19.5817 29 24C29 28.4183 32.5817 32 37 32Z" fill="#107966"/>
</g>
</g>
<path d="M23.37 7.142L24.755 2L19 9.135H22.131L20.38 13.7935L26.713 7.142H23.37ZM23 16C18.5815 16 15 12.4185 15 8C15 3.5815 18.5815 0 23 0C27.4185 0 31 3.5815 31 8C31 12.4185 27.4185 16 23 16Z" fill="#107966"/>
<g filter="url(#filter1_d_1248_517)">
<mask id="mask1_1248_517" style="mask-type:luminance" maskUnits="userSpaceOnUse" x="14" y="26" width="16" height="17">
<path d="M14 26.7308H30V42.5452H14V26.7308Z" fill="white"/>
<path fill-rule="evenodd" clip-rule="evenodd" d="M16.4615 35.2463C15.8953 35.2463 15.6295 34.5547 16.0528 34.1837L21.5913 29.3177C21.7039 29.2189 21.8493 29.1643 21.9999 29.1643C22.1505 29.1643 22.2959 29.2189 22.4085 29.3177L27.947 34.1837C28.3704 34.5547 28.1039 35.2463 27.5384 35.2463H26.923V39.504C26.923 39.6654 26.8582 39.8201 26.7428 39.9341C26.6273 40.0482 26.4708 40.1123 26.3076 40.1123H17.6922C17.529 40.1123 17.3725 40.0482 17.2571 39.9341C17.1417 39.8201 17.0768 39.6654 17.0768 39.504V35.2463H16.4615ZM20.1538 38.8958V35.8546C20.1538 35.6932 20.2186 35.5385 20.334 35.4245C20.4494 35.3104 20.6059 35.2463 20.7691 35.2463H23.2307C23.3939 35.2463 23.5504 35.3104 23.6658 35.4245C23.7812 35.5385 23.8461 35.6932 23.8461 35.8546V38.8958H25.6922V34.6381C25.6922 34.5299 25.7214 34.4236 25.7768 34.3303C25.8322 34.2369 25.9117 34.1599 26.0073 34.1071L21.9999 30.5853L17.9925 34.1071C18.0881 34.1599 18.1677 34.2369 18.2231 34.3303C18.2784 34.4236 18.3076 34.5299 18.3076 34.6381V38.8958H20.1538ZM21.3845 38.8958V36.4628H22.6153V38.8958H21.3845Z" fill="black"/>
</mask>
<g mask="url(#mask1_1248_517)">
<path d="M22 42.5452C26.4183 42.5452 30 39.005 30 34.638C30 30.271 26.4183 26.7308 22 26.7308C17.5817 26.7308 14 30.271 14 34.638C14 39.005 17.5817 42.5452 22 42.5452Z" fill="#107966"/>
</g>
</g>
<path d="M8 11C3.6 11 0 14.6 0 19C0 23.4 3.6 27 8 27C12.4 27 16 23.4 16 19C16 14.6 12.4 11 8 11ZM8 24.6C5.792 24.6 4 22.808 4 20.6C4 17.936 8 13.432 8 13.432C8 13.432 12 17.936 12 20.6C12 22.808 10.208 24.6 8 24.6Z" fill="#107966"/>
<defs>
<filter id="filter0_d_1248_517" x="25" y="16" width="24" height="24" filterUnits="userSpaceOnUse" color-interpolation-filters="sRGB">
<feFlood flood-opacity="0" result="BackgroundImageFix"/>
<feColorMatrix in="SourceAlpha" type="matrix" values="0 0 0 0 0 0 0 0 0 0 0 0 0 0 0 0 0 0 127 0" result="hardAlpha"/>
<feOffset dy="4"/>
<feGaussianBlur stdDeviation="2"/>
<feComposite in2="hardAlpha" operator="out"/>
<feColorMatrix type="matrix" values="0 0 0 0 0 0 0 0 0 0 0 0 0 0 0 0 0 0 0.25 0"/>
<feBlend mode="normal" in2="BackgroundImageFix" result="effect1_dropShadow_1248_517"/>
<feBlend mode="normal" in="SourceGraphic" in2="effect1_dropShadow_1248_517" result="shape"/>
</filter>
<filter id="filter1_d_1248_517" x="10" y="26.7308" width="24" height="23.8143" filterUnits="userSpaceOnUse" color-interpolation-filters="sRGB">
<feFlood flood-opacity="0" result="BackgroundImageFix"/>
<feColorMatrix in="SourceAlpha" type="matrix" values="0 0 0 0 0 0 0 0 0 0 0 0 0 0 0 0 0 0 127 0" result="hardAlpha"/>
<feOffset dy="4"/>
<feGaussianBlur stdDeviation="2"/>
<feComposite in2="hardAlpha" operator="out"/>
<feColorMatrix type="matrix" values="0 0 0 0 0 0 0 0 0 0 0 0 0 0 0 0 0 0 0.25 0"/>
<feBlend mode="normal" in2="BackgroundImageFix" result="effect1_dropShadow_1248_517"/>
<feBlend mode="normal" in="SourceGraphic" in2="effect1_dropShadow_1248_517" result="shape"/>
</filter>
</defs>
</svg>
