<svg width="44" height="32" viewBox="0 0 44 32" fill="none" xmlns="http://www.w3.org/2000/svg">
<path d="M0 31.7054V26.1703C0 25.0501 0.292 24.0209 0.876 23.0826C1.46 22.1442 2.23467 21.4273 3.2 20.9318C5.26667 19.9105 7.36667 19.1448 9.5 18.6348C11.6333 18.1248 13.8 17.8691 16 17.8678C18.2 17.8665 20.3667 18.1221 22.5 18.6348C24.6333 19.1474 26.7333 19.9131 28.8 20.9318C29.7667 21.426 30.542 22.1429 31.126 23.0826C31.71 24.0222 32.0013 25.0515 32 26.1703V31.7054H0ZM36 31.7054V25.775C36 24.3253 35.592 22.933 34.776 21.598C33.96 20.263 32.8013 19.1184 31.3 18.1643C33 18.362 34.6 18.7 36.1 19.1784C37.6 19.6568 39 20.2412 40.3 20.9318C41.5 21.5907 42.4167 22.3235 43.05 23.13C43.6833 23.9365 44 24.8182 44 25.775V31.7054H36ZM16 15.891C13.8 15.891 11.9167 15.1167 10.35 13.5682C8.78333 12.0197 8 10.1583 8 7.98378C8 5.8093 8.78333 3.94782 10.35 2.39933C11.9167 0.850835 13.8 0.0765888 16 0.0765888C18.2 0.0765888 20.0833 0.850835 21.65 2.39933C23.2167 3.94782 24 5.8093 24 7.98378C24 10.1583 23.2167 12.0197 21.65 13.5682C20.0833 15.1167 18.2 15.891 16 15.891ZM36 7.98378C36 10.1583 35.2167 12.0197 33.65 13.5682C32.0833 15.1167 30.2 15.891 28 15.891C27.6333 15.891 27.1667 15.8501 26.6 15.7684C26.0333 15.6867 25.5667 15.5958 25.2 15.4956C26.1 14.4413 26.792 13.2717 27.276 11.9868C27.76 10.7019 28.0013 9.36754 28 7.98378C27.9987 6.60002 27.7573 5.26568 27.276 3.98076C26.7947 2.69585 26.1027 1.52624 25.2 0.471948C25.6667 0.307215 26.1333 0.19981 26.6 0.149731C27.0667 0.0996518 27.5333 0.0752709 28 0.0765888C30.2 0.0765888 32.0833 0.850835 33.65 2.39933C35.2167 3.94782 36 5.8093 36 7.98378Z" fill="#107966"/>
</svg>
