<svg width="41" height="41" viewBox="0 0 41 41" fill="none" xmlns="http://www.w3.org/2000/svg">
<path d="M3.66667 8.03244V37.0255H36.6667V40.6496H3.66667C2.69421 40.6496 1.76158 40.2678 1.07394 39.5881C0.386308 38.9085 0 37.9867 0 37.0255V8.03244H3.66667ZM27.5 13.4686H37.5833L27.5 3.50228V13.4686ZM11 0.78418H29.3333L40.3333 11.6566V29.7772C40.3333 30.7384 39.947 31.6602 39.2594 32.3399C38.5718 33.0195 37.6391 33.4013 36.6667 33.4013H11C10.0275 33.4013 9.09491 33.0195 8.40727 32.3399C7.71964 31.6602 7.33333 30.7384 7.33333 29.7772V4.40831C7.33333 3.44713 7.71964 2.52532 8.40727 1.84566C9.09491 1.16601 10.0275 0.78418 11 0.78418ZM11 4.40831V29.7772H36.6667V17.0928H23.8333V4.40831H11Z" fill="#107966"/>
</svg>
