<svg width="36" height="36" viewBox="0 0 36 36" fill="none" xmlns="http://www.w3.org/2000/svg">
<path fill-rule="evenodd" clip-rule="evenodd" d="M18 35.6728C20.3638 35.6728 22.7044 35.2126 24.8883 34.3186C27.0722 33.4245 29.0565 32.114 30.7279 30.4619C32.3994 28.8098 33.7253 26.8486 34.6298 24.69C35.5344 22.5315 36 20.218 36 17.8816C36 15.5453 35.5344 13.2318 34.6298 11.0732C33.7253 8.91472 32.3994 6.95343 30.7279 5.30137C29.0565 3.64931 27.0722 2.33882 24.8883 1.44473C22.7044 0.550636 20.3638 0.0904541 18 0.0904541C13.2261 0.0904542 8.64773 1.96488 5.27208 5.30137C1.89642 8.63787 0 13.1631 0 17.8816C0 22.6002 1.89642 27.1254 5.27208 30.4619C8.64773 33.7984 13.2261 35.6728 18 35.6728ZM17.536 25.0772L27.536 13.2164L24.464 10.6861L15.864 20.8844L11.414 16.484L8.586 19.2792L14.586 25.2096L16.134 26.7397L17.536 25.0772Z" fill="#107966"/>
</svg>
